# xmcd
#
# Track frame offsets:
#       150
#       16190
#       31157
#       46567
#       62550
#       79440
#       94920
#       112250
#       128162
#       143045
#       160100
#       178545
#       193582
#       209050
#       224590
#       241942
#       260270
#       274407
#       291795
#       307090
#
# Disc length: 4298 seconds
#
# Revision: 2
# Processed by: cddbd v1.5.2PL0 Copyright (c) Steve Scherf et al.
# Submitted via: FreeDbEdit v0.1
#
DISCID=2a10c814
DTITLE=Britney Spears - Greatest Hits: My Prerogative
DYEAR=2004
DGENRE=R&B
TTITLE0=My Prerogative
TTITLE1=Toxic
TTITLE2=I'm a Slave 4 U
TTITLE3=Oops!... I Did It Again
TTITLE4=Me Against the Music
TTITLE5=Stronger
TTITLE6=Everytime
TTITLE7=Baby One More Time
TTITLE8=(You Drive Me) Cragy (The Stop Remix!)
TTITLE9=Boys (The CD-Ed Remix)
TTITLE10=Sometimes
TTITLE11=Overprotected
TTITLE12=Lucky
TTITLE13=Outrageous
TTITLE14=Don't Let Me Be the Last to Know
TTITLE15=Born to Make You Happy
TTITLE16=I Love Rock'n'Roll
TTITLE17=I'm Not a Girl,Not Yet a Woman
TTITLE18=I've Just Begin (Having My Fun)
TTITLE19=Do Somethin'
EXTD=YEAR: 2004
EXTT0=
EXTT1=
EXTT2=
EXTT3=
EXTT4=
EXTT5=
EXTT6=
EXTT7=
EXTT8=
EXTT9=
EXTT10=
EXTT11=
EXTT12=
EXTT13=
EXTT14=
EXTT15=
EXTT16=
EXTT17=
EXTT18=
EXTT19=
PLAYORDER=
